<?xml version="1.0" encoding="UTF-8" standalone="no"?>
<svg
   role="img"
   viewBox="0 0 120 24"
   version="1.1"
   id="svg6"
   sodipodi:docname="icons.svg"
   width="120"
   height="24"
   inkscape:version="1.2.2 (732a01da63, 2022-12-09)"
   xmlns:inkscape="http://www.inkscape.org/namespaces/inkscape"
   xmlns:sodipodi="http://sodipodi.sourceforge.net/DTD/sodipodi-0.dtd"
   xmlns="http://www.w3.org/2000/svg"
   xmlns:svg="http://www.w3.org/2000/svg"
   xmlns:rdf="http://www.w3.org/1999/02/22-rdf-syntax-ns#"
   xmlns:cc="http://creativecommons.org/ns#"
   xmlns:dc="http://purl.org/dc/elements/1.1/">
  <defs
     id="defs10" />
  <sodipodi:namedview
     id="namedview8"
     pagecolor="#ffffff"
     bordercolor="#000000"
     borderopacity="0.25"
     inkscape:showpageshadow="2"
     inkscape:pageopacity="0.0"
     inkscape:pagecheckerboard="0"
     inkscape:deskcolor="#d1d1d1"
     showgrid="false"
     inkscape:zoom="16"
     inkscape:cx="67.78125"
     inkscape:cy="15.375"
     inkscape:window-width="2560"
     inkscape:window-height="1377"
     inkscape:window-x="-8"
     inkscape:window-y="-8"
     inkscape:window-maximized="1"
     inkscape:current-layer="svg6" />
  <title
     id="title2">arXiv</title>
  <path
     d="M 3.8423,0 A 1.0037,1.0037 0 0 0 2.9203,0.6078 C 2.7667,0.9765 2.8765,1.2353 3.2141,1.7191 l 6.9185,8.3597 -1.0223,1.1058 a 1.0393,1.0393 0 0 0 0.003,1.4229 l 1.2292,1.3135 -5.4391,6.4444 c -0.2803,0.299 -0.4538,0.823 -0.2971,1.1986 a 1.0253,1.0253 0 0 0 0.9585,0.635 0.9133,0.9133 0 0 0 0.6891,-0.3405 l 5.783,-6.126 7.4902,8.0051 a 0.8527,0.8527 0 0 0 0.6835,0.2597 0.9575,0.9575 0 0 0 0.8777,-0.6138 c 0.1577,-0.377 -0.017,-0.7502 -0.306,-1.1407 l -7.0518,-8.3418 1.0632,-1.13 a 0.9626,0.9626 0 0 0 0.0089,-1.3165 L 4.6336,0.4639 c 0,0 -0.3733,-0.4535 -0.768,-0.463 z m 0,0.272 h 0.0166 c 0.2179,0.0052 0.4874,0.2715 0.5644,0.3639 l 0.005,0.006 0.0052,0.0055 10.169,10.9905 a 0.6915,0.6915 0 0 1 -0.0072,0.945 l -1.0666,1.133 -1.4982,-1.7724 -8.5994,-10.39 C 3.1025,1.0815 3.0791,0.9352 3.1719,0.7125 A 0.7307,0.7307 0 0 1 3.8423,0.2724 Z m 14.341,1.5701 a 0.877,0.877 0 0 0 -0.6554,0.2418 l -5.6962,6.1584 1.6944,1.8319 5.3089,-6.5138 c 0.3251,-0.4335 0.479,-0.6603 0.3247,-1.0292 a 1.1205,1.1205 0 0 0 -0.9763,-0.689 z m -7.6557,12.2823 1.3186,1.4135 -5.7864,6.1295 a 0.6494,0.6494 0 0 1 -0.4959,0.26 0.7516,0.7516 0 0 1 -0.706,-0.4669 C 4.746,21.1923 4.8938,20.7741 5.1021,20.5522 l 0.0051,-0.0055 0.0047,-0.0055 z"
     id="path4" />
  <metadata
     id="metadata793">
    <rdf:RDF>
      <cc:Work
         rdf:about="">
        <dc:title>arXiv</dc:title>
      </cc:Work>
    </rdf:RDF>
  </metadata>
  <path
     d="m 48.002769,12.069218 c 0,-6.6270008 -5.373,-12.00000081 -12,-12.00000081 -6.627,0 -12,5.37300001 -12,12.00000081 0,5.99 4.388,10.954 10.125,11.854 v -8.385 h -3.047 v -3.47 h 3.047 V 9.4262172 c 0,-3.0070001 1.792,-4.6690001 4.533,-4.6690001 1.312,0 2.686,0.235 2.686,0.235 v 2.9530001 h -1.514 c -1.491,0 -1.956,0.925 -1.956,1.8740003 v 2.2500005 h 3.328 l -0.532,3.47 h -2.796 v 8.385 c 5.738,-0.901 10.126,-5.866 10.126,-11.855 z"
     id="path1886" />
  <path
     d="m 60,0.19557048 c -6.63,0 -12,5.37300002 -12,12.00000052 0,5.302999 3.438,9.799999 8.205,11.384999 0.6,0.113 0.82,-0.258 0.82,-0.576999 0,-0.285 -0.01,-1.04 -0.015,-2.04 -3.338,0.724 -4.042,-1.61 -4.042,-1.61 -0.546,-1.385 -1.335,-1.755 -1.335,-1.755 -1.087,-0.744 0.084,-0.729 0.084,-0.729 1.205,0.084 1.838,1.236 1.838,1.236 1.07,1.835 2.809,1.305 3.495,0.998 0.108,-0.776 0.417,-1.305 0.76,-1.605 -2.665,-0.3 -5.466,-1.332 -5.466,-5.93 0,-1.31 0.465,-2.3800005 1.235,-3.2200005 -0.135,-0.303 -0.54,-1.523 0.105,-3.176 0,0 1.005,-0.322 3.3,1.23 0.96,-0.267 1.98,-0.399 3,-0.405 1.02,0.006 2.04,0.138 3,0.405 2.28,-1.552 3.285,-1.23 3.285,-1.23 0.645,1.653 0.24,2.873 0.12,3.176 0.765,0.84 1.23,1.9100005 1.23,3.2200005 0,4.61 -2.805,5.625 -5.475,5.92 0.42,0.36 0.81,1.096 0.81,2.22 0,1.606 -0.015,2.896 -0.015,3.286 0,0.315 0.21,0.69 0.825,0.57 4.801,-1.574 8.236,-6.074 8.236,-11.369 C 72,5.5685705 66.627,0.19557048 60,0.19557048"
     id="path5356" />
  <path
     d="m 83.999723,0.01353815 c -3.260001,0 -3.667,0.015 -4.947,0.072 -1.278001,0.06 -2.148,0.261 -2.913,0.558 -0.789,0.306 -1.459,0.71699995 -2.126001,1.38399995 -0.667,0.667 -1.078999,1.3360001 -1.384,2.126 -0.296999,0.765 -0.498999,1.635 -0.558002,2.913 -0.06,1.28 -0.072,1.687 -0.072,4.9469999 0,3.26 0.015,3.667 0.072,4.947 0.06,1.277 0.261003,2.148 0.558002,2.913 0.306,0.788 0.717,1.459 1.384,2.126 0.667001,0.666 1.336,1.079 2.126001,1.384 0.766,0.296 1.635999,0.499 2.913,0.558 1.28,0.06 1.686999,0.072 4.947,0.072 3.26,0 3.667,-0.015 4.947,-0.072 1.277,-0.06 2.148,-0.262 2.913,-0.558 0.787999,-0.306 1.459,-0.718 2.126,-1.384 0.666,-0.667 1.079,-1.335 1.384,-2.126 0.296,-0.765 0.499,-1.636 0.558,-2.913 0.06,-1.28 0.072,-1.687 0.072,-4.947 0,-3.2599998 -0.015,-3.6669998 -0.072,-4.9469999 -0.06,-1.277 -0.262,-2.149 -0.558,-2.913 -0.306,-0.789 -0.718,-1.459 -1.384,-2.126 -0.667,-0.667 -1.335,-1.07899995 -2.126,-1.38399995 -0.765,-0.297 -1.636,-0.499 -2.913,-0.558 -1.28,-0.06 -1.687,-0.072 -4.947,-0.072 z m 0,2.16000005 c 3.203,0 3.584999,0.016 4.849999,0.071 1.17,0.055 1.805001,0.249 2.227001,0.415 0.561999,0.217 0.959999,0.477 1.382,0.896 0.419,0.42 0.679,0.8189999 0.896,1.381 0.164,0.4219999 0.36,1.057 0.413,2.227 0.057,1.266 0.07,1.646 0.07,4.8499998 0,3.204 -0.015,3.585 -0.074,4.85 -0.061,1.17 -0.256,1.805 -0.421,2.227 -0.224,0.562 -0.479,0.96 -0.899,1.382 -0.419,0.419 -0.824,0.679 -1.38,0.896 -0.42,0.164 -1.065,0.36 -2.235,0.413 -1.274,0.057 -1.649,0.07 -4.858999,0.07 -3.211,0 -3.586,-0.015 -4.859,-0.074 -1.171,-0.061 -1.816,-0.256 -2.236,-0.421 -0.569,-0.224 -0.96,-0.479 -1.379001,-0.899 -0.421,-0.419 -0.689999,-0.824 -0.9,-1.38 -0.165,-0.42 -0.359,-1.065 -0.42,-2.235 -0.045,-1.26 -0.061,-1.649 -0.061,-4.844 0,-3.1959998 0.016,-3.5859998 0.061,-4.8609999 0.061,-1.17 0.255,-1.814 0.42,-2.234 0.21,-0.57 0.479,-0.96 0.9,-1.381 0.419,-0.419 0.810001,-0.689 1.379001,-0.898 0.42,-0.166 1.051,-0.361 2.221,-0.421 1.275,-0.045 1.65,-0.06 4.859,-0.06 z m 0,3.6779999 c -3.405,0 -6.162001,2.7600001 -6.162001,6.1619999 0,3.405 2.760001,6.162 6.162001,6.162 3.405,0 6.162,-2.76 6.162,-6.162 0,-3.4049999 -2.76,-6.1619999 -6.162,-6.1619999 z m 0,10.1619999 c -2.21,0 -4,-1.79 -4,-4 0,-2.2099998 1.79,-3.9999999 4,-3.9999999 2.209999,0 4,1.7900001 4,3.9999999 0,2.21 -1.790001,4 -4,4 z m 7.846,-10.4049999 c 0,0.795 -0.646,1.44 -1.44,1.44 -0.795,0 -1.44,-0.646 -1.44,-1.44 0,-0.794 0.646,-1.439 1.44,-1.439 0.793,-10e-4 1.44,0.645 1.44,1.439 z"
     id="path8046" />
  <path
     d="m 116.447,20.452 h -3.554 v -5.568999 c 0,-1.328 -0.027,-3.037 -1.852,-3.037 -1.853,0 -2.136,1.445 -2.136,2.939 v 5.667 h -3.554 V 9.0000001 h 3.414 V 10.561 h 0.046 c 0.477,-0.8999999 1.637,-1.8499999 3.37,-1.8499999 3.601,0 4.267,2.3699999 4.267,5.4549999 v 6.286 z M 101.337,7.4330001 c -1.144,0 -2.063,-0.9260001 -2.063,-2.065 0,-1.138 0.92,-2.063 2.063,-2.063 1.14,0 2.064,0.925 2.064,2.063 0,1.139 -0.925,2.065 -2.064,2.065 z M 103.119,20.452 H 99.555001 V 9.0000001 H 103.119 Z M 118.225,-1.9999998e-8 H 97.771 C 96.792,-1.9999998e-8 95.999999,0.77399998 95.999999,1.7290001 V 22.271 C 95.999999,23.227 96.792,24 97.771,24 h 20.451 C 119.2,24 120,23.227 120,22.271 V 1.7289999 C 120,0.77399998 119.2,-2e-8 118.222,-2e-8 Z"
     id="path10012" />
</svg>
