<?xml version="1.0" encoding="UTF-8" standalone="no"?>
<svg
   role="img"
   viewBox="0 0 144 24"
   version="1.1"
   id="svg6"
   sodipodi:docname="music_icons.svg"
   width="144"
   height="24"
   inkscape:version="1.2.2 (732a01da63, 2022-12-09)"
   xmlns:inkscape="http://www.inkscape.org/namespaces/inkscape"
   xmlns:sodipodi="http://sodipodi.sourceforge.net/DTD/sodipodi-0.dtd"
   xmlns="http://www.w3.org/2000/svg"
   xmlns:svg="http://www.w3.org/2000/svg"
   xmlns:rdf="http://www.w3.org/1999/02/22-rdf-syntax-ns#"
   xmlns:cc="http://creativecommons.org/ns#"
   xmlns:dc="http://purl.org/dc/elements/1.1/">
  <defs
     id="defs10" />
  <sodipodi:namedview
     id="namedview8"
     pagecolor="#ffffff"
     bordercolor="#000000"
     borderopacity="0.25"
     inkscape:showpageshadow="2"
     inkscape:pageopacity="0.0"
     inkscape:pagecheckerboard="0"
     inkscape:deskcolor="#d1d1d1"
     showgrid="false"
     inkscape:zoom="8"
     inkscape:cx="93.1875"
     inkscape:cy="21.375"
     inkscape:window-width="2560"
     inkscape:window-height="1377"
     inkscape:window-x="-8"
     inkscape:window-y="-8"
     inkscape:window-maximized="1"
     inkscape:current-layer="svg6" />
  <title
     id="title2">Amazon</title>
  <path
     d="m 0.045,18.02 c 0.072,-0.116 0.187,-0.124 0.348,-0.022 3.636,2.11 7.594,3.166 11.87,3.166 2.852,0 5.668,-0.533 8.447,-1.595 l 0.315,-0.14 c 0.138,-0.06 0.234,-0.1 0.293,-0.13 0.226,-0.088 0.39,-0.046 0.525,0.13 0.12,0.174 0.09,0.336 -0.12,0.48 -0.256,0.19 -0.6,0.41 -1.006,0.654 -1.244,0.743 -2.64,1.316 -4.185,1.726 A 17.617,17.617 0 0 1 5.581,21.712 17.88,17.88 0 0 1 0.151,18.362 C 0.051,18.288 0,18.212 0,18.142 0,18.095 0.021,18.052 0.051,18.012 Z M 6.61,11.802 c 0,-1.005 0.247,-1.863 0.743,-2.577 0.495,-0.71 1.17,-1.25 2.04,-1.615 0.796,-0.335 1.756,-0.575 2.912,-0.72 0.39,-0.046 1.033,-0.103 1.92,-0.174 v -0.37 c 0,-0.93 -0.105,-1.558 -0.3,-1.875 -0.302,-0.43 -0.78,-0.65 -1.44,-0.65 h -0.182 c -0.48,0.046 -0.896,0.196 -1.246,0.46 -0.35,0.27 -0.575,0.63 -0.675,1.096 -0.06,0.3 -0.206,0.465 -0.435,0.51 L 7.427,5.572 C 7.179,5.512 7.055,5.392 7.055,5.182 c 0,-0.046 0.007,-0.09 0.022,-0.15 0.247,-1.29 0.855,-2.25 1.82,-2.88 0.976,-0.616 2.1,-0.975 3.39,-1.05 h 0.54 c 1.65,0 2.957,0.434 3.888,1.29 0.135,0.15 0.27,0.3 0.405,0.48 0.12,0.165 0.224,0.314 0.283,0.45 0.075,0.134 0.15,0.33 0.195,0.57 0.06,0.254 0.105,0.42 0.135,0.51 0.03,0.104 0.062,0.3 0.076,0.615 0.01,0.313 0.02,0.493 0.02,0.553 v 5.28 c 0,0.376 0.06,0.72 0.165,1.036 0.105,0.313 0.21,0.54 0.315,0.674 l 0.51,0.674 c 0.09,0.136 0.136,0.256 0.136,0.36 0,0.12 -0.06,0.226 -0.18,0.314 -1.2,1.05 -1.86,1.62 -1.963,1.71 -0.165,0.135 -0.375,0.15 -0.63,0.045 A 6.062,6.062 0 0 1 15.656,15.167 L 15.346,14.82 A 9.391,9.391 0 0 1 15.029,14.4 l -0.3,-0.435 c -0.81,0.886 -1.603,1.44 -2.4,1.665 -0.494,0.15 -1.093,0.227 -1.83,0.227 -1.11,0 -2.04,-0.343 -2.76,-1.034 -0.72,-0.69 -1.08,-1.665 -1.08,-2.94 l -0.05,-0.076 z m 3.753,-0.438 c 0,0.566 0.14,1.02 0.425,1.364 0.285,0.34 0.675,0.512 1.155,0.512 0.045,0 0.106,-0.007 0.195,-0.02 0.09,-0.016 0.134,-0.023 0.166,-0.023 0.614,-0.16 1.08,-0.553 1.424,-1.178 0.165,-0.28 0.285,-0.58 0.36,-0.91 0.09,-0.32 0.12,-0.59 0.135,-0.8 0.015,-0.195 0.015,-0.54 0.015,-1.005 v -0.54 c -0.84,0 -1.484,0.06 -1.92,0.18 -1.275,0.36 -1.92,1.17 -1.92,2.43 l -0.035,-0.02 z m 9.162,7.027 c 0.03,-0.06 0.075,-0.11 0.132,-0.17 0.362,-0.243 0.714,-0.41 1.05,-0.5 a 8.094,8.094 0 0 1 1.612,-0.24 c 0.14,-0.012 0.28,0 0.41,0.03 0.65,0.06 1.05,0.168 1.172,0.33 0.063,0.09 0.099,0.228 0.099,0.39 v 0.15 c 0,0.51 -0.149,1.11 -0.424,1.8 -0.278,0.69 -0.664,1.248 -1.156,1.68 -0.073,0.06 -0.14,0.09 -0.197,0.09 -0.03,0 -0.06,0 -0.09,-0.012 -0.09,-0.044 -0.107,-0.12 -0.064,-0.24 0.54,-1.26 0.806,-2.143 0.806,-2.64 0,-0.15 -0.03,-0.27 -0.087,-0.344 -0.145,-0.166 -0.55,-0.257 -1.224,-0.257 -0.243,0 -0.533,0.016 -0.87,0.046 -0.363,0.045 -0.7,0.09 -1,0.135 -0.09,0 -0.148,-0.014 -0.18,-0.044 -0.03,-0.03 -0.036,-0.047 -0.02,-0.077 0,-0.017 0.006,-0.03 0.02,-0.063 v -0.06 z"
     id="path4" />
  <metadata
     id="metadata2018">
    <rdf:RDF>
      <cc:Work
         rdf:about="">
        <dc:title>Amazon</dc:title>
      </cc:Work>
    </rdf:RDF>
  </metadata>
  <path
     d="m 37.390566,6.907603 c -0.948,0 -2.415,-1.078 -3.96,-1.04 -2.04,0.027 -3.91,1.183 -4.961,3.014 -2.117,3.675 -0.546,9.103 1.519,12.09 1.013,1.454 2.208,3.09 3.792,3.039 1.52,-0.065 2.09,-0.987 3.935,-0.987 1.831,0 2.35,0.987 3.96,0.948 1.637,-0.026 2.676,-1.48 3.676,-2.948 1.156,-1.688 1.636,-3.325 1.662,-3.415 -0.039,-0.013 -3.182,-1.221 -3.22,-4.857 -0.026,-3.04 2.48,-4.494 2.597,-4.559 -1.429,-2.09 -3.623,-2.324 -4.39,-2.376 -2,-0.156 -3.675,1.09 -4.61,1.09 z m 3.378,-3.066 c 0.843,-1.012 1.4,-2.427 1.245,-3.82999992 -1.207,0.052 -2.662,0.805 -3.532,1.81799992 -0.78,0.896 -1.454,2.338 -1.273,3.714 1.338,0.104 2.715,-0.688 3.559,-1.701"
     id="path1054" />
  <path
     d="M 48,19 55.437,5.5000001 H 72 L 64.562,19 Z"
     id="path3178" />
  <path
     d="m 73.173954,11.523084 c -0.051,0 -0.094,0.046 -0.101,0.1 l -0.233,2.154 0.233,2.105 c 0.007,0.058 0.05,0.098 0.101,0.098 0.05,0 0.09,-0.04 0.099,-0.098 l 0.255,-2.105 -0.27,-2.154 c 0,-0.057 -0.045,-0.1 -0.09,-0.1 m -0.899,0.828 c -0.06,0 -0.091,0.037 -0.104,0.094 l -0.166,1.332 0.165001,1.308 c 0,0.055 0.045,0.094 0.09,0.094 0.045,0 0.089,-0.045 0.104,-0.104 l 0.209999,-1.319 -0.209999,-1.334 c 0,-0.061 -0.044,-0.09 -0.09,-0.09 m 1.83,-1.229 c -0.061,0 -0.12,0.045 -0.12,0.104 l -0.21,2.563 0.225,2.458 c 0,0.06 0.045,0.12 0.119,0.12 0.061,0 0.105,-0.061 0.121,-0.12 l 0.254,-2.474 -0.254,-2.548 c -0.016,-0.06 -0.061,-0.12 -0.121,-0.12 m 0.945,-0.089 c -0.075,0 -0.135,0.06 -0.15,0.135 l -0.193,2.64 0.21,2.544 c 0.016,0.077 0.075,0.138 0.149,0.138 0.075,0 0.135,-0.061 0.15,-0.15 l 0.240003,-2.532 -0.240003,-2.623 c 0,-0.075 -0.06,-0.135 -0.135,-0.135 z m 1.155003,0.36 c -0.005,-0.09 -0.075,-0.149 -0.159,-0.149 -0.09,0 -0.158,0.06 -0.164,0.149 l -0.217,2.43 0.2,2.563 c 0,0.09 0.075,0.157 0.159,0.157 0.074,0 0.148,-0.068 0.148,-0.158 l 0.227,-2.563 -0.227,-2.444 z m 0.809,-1.709 c -0.101,0 -0.18,0.09 -0.18,0.1809999 l -0.21,3.9570001 0.187,2.563 c 0,0.09 0.08,0.164 0.18,0.164 0.094,0 0.174,-0.09 0.18,-0.18 l 0.209,-2.563 -0.209,-3.9720001 c -0.008,-0.1039999 -0.088,-0.18 -0.18,-0.18 m 0.959,-0.914 c -0.105,0 -0.195,0.09 -0.203,0.1940001 l -0.18,4.872 0.165,2.548 c 0,0.12 0.09,0.209 0.195,0.209 0.104,0 0.194,-0.089 0.21,-0.209 l 0.193,-2.548 -0.192,-4.8560001 c -0.016,-0.12 -0.105,-0.21 -0.21,-0.21 m 0.989,-0.449 c -0.121,0 -0.211,0.089 -0.225,0.209 l -0.165,5.2750001 0.165,2.52 c 0.014,0.119 0.104,0.225 0.225,0.225 0.119,0 0.225,-0.105 0.225,-0.225 l 0.195,-2.52 -0.196,-5.2750001 c 0,-0.1199999 -0.105,-0.2249999 -0.225,-0.2249999 m 1.245,0.045 c 0,-0.135 -0.105,-0.2400001 -0.24,-0.2400001 -0.119,0 -0.24,0.1050001 -0.24,0.2400001 l -0.149,5.441 0.149,2.503 c 0.016,0.135 0.121,0.24 0.256,0.24 0.135,0 0.24,-0.105 0.24,-0.24 l 0.164,-2.503 -0.164,-5.4560001 z m 0.749,-0.1340001 c -0.135,0 -0.255,0.119 -0.255,0.254 l -0.15,5.3220001 0.15,2.473 c 0,0.15 0.12,0.255 0.255,0.255 0.135,0 0.255,-0.12 0.255,-0.27 l 0.15,-2.474 -0.165,-5.3070001 c 0,-0.1479999 -0.12,-0.2699999 -0.271,-0.2699999 m 1.005,0.166 c -0.164,0 -0.284,0.135 -0.284,0.285 l -0.103,5.143 0.135,2.474 c 0,0.149 0.119,0.277 0.284,0.277 0.149,0 0.271,-0.12 0.284,-0.285 l 0.121,-2.443 -0.135,-5.112 c -0.012,-0.164 -0.135,-0.285 -0.285,-0.285 m 1.184,-0.945 c -0.045,-0.029 -0.105,-0.044 -0.165,-0.044 -0.06,0 -0.119,0.015 -0.165,0.044 -0.09,0.054 -0.149,0.15 -0.149,0.255 v 0.061 l -0.104,6.048 0.115,2.449 v 0.008 c 0.008,0.06 0.03,0.135 0.074,0.18 0.058,0.061 0.142,0.104 0.234,0.104 0.08,0 0.158,-0.044 0.209,-0.09 0.058,-0.06 0.091,-0.135 0.091,-0.225 l 0.015,-0.24 0.117,-2.203 -0.135,-6.0860001 c 0,-0.104 -0.061,-0.193 -0.135,-0.239 z m 1.006,-0.547 c -0.045,-0.045 -0.09,-0.061 -0.15,-0.061 -0.074,0 -0.149,0.016 -0.209,0.061 -0.075,0.061 -0.119,0.15 -0.119,0.24 v 0.029 l -0.137,6.609 0.076,1.215 0.061,1.185 c 0,0.164 0.148,0.314 0.328,0.314 0.181,0 0.33,-0.15 0.33,-0.329 l 0.15,-2.414 -0.15,-6.637 c 0,-0.12 -0.074,-0.221 -0.165,-0.277 m 8.934,3.777 c -0.405,0 -0.795,0.086 -1.139,0.232 -0.24,-2.654 -2.46,-4.7360001 -5.188,-4.7360001 -0.659,0 -1.305,0.135 -1.889,0.359 -0.225,0.09 -0.27,0.18 -0.285,0.359 v 9.3680001 c 0.016,0.18 0.15,0.33 0.33,0.345 h 8.185 c 1.619,0.016 2.938,-1.288 2.938,-2.922 0,-1.634 -1.319,-2.952 -2.938,-2.952"
     id="path6594" />
  <path
     d="m 108,0.00390623 c -6.6,0 -12.000005,5.40000007 -12.000005,12.00000077 0,6.6 5.400005,11.999999 12.000005,11.999999 6.59999,0 12,-5.399999 12,-11.999999 0,-6.6000007 -5.34001,-12.00000077 -12,-12.00000077 z m 5.521,17.33999977 c -0.24,0.359 -0.66,0.48 -1.021,0.24 -2.82,-1.739999 -6.36,-2.101 -10.561,-1.141 -0.418,0.122 -0.779,-0.178999 -0.899,-0.539 -0.12,-0.421 0.18,-0.78 0.54,-0.9 4.56,-1.021 8.52,-0.6 11.64,1.32 0.42,0.18 0.479,0.659 0.301,1.02 z m 1.43999,-3.3 c -0.301,0.42 -0.84099,0.6 -1.262,0.300001 -3.239,-1.980001 -8.159,-2.58 -11.93899,-1.38 -0.479,0.12 -1.02,-0.12 -1.14,-0.6 -0.12,-0.48 0.12,-1.021 0.59999,-1.141 4.38,-1.3190008 9.78001,-0.658 13.5,1.621 0.36101,0.181 0.54001,0.78 0.241,1.199999 z M 115.081,10.683907 C 111.24,8.4039063 104.82,8.1639063 101.16,9.3049063 c -0.6,0.179 -1.200005,-0.181 -1.380005,-0.721 -0.18,-0.6010001 0.18,-1.2000001 0.720005,-1.3810001 4.26,-1.26 11.28,-1.02 15.721,1.6210001 0.539,0.3 0.719,1.02 0.419,1.5600007 -0.299,0.421 -1.02,0.599 -1.559,0.3 z"
     id="path10010" />
  <path
     d="m 131.99628,0.00195404 c -6.624,0 -12,5.37599996 -12,12.00000096 0,6.623999 5.376,11.999999 12,11.999999 6.624,0 12,-5.376 12,-11.999999 0,-6.624001 -5.376,-12.00000096 -12,-12.00000096 z m 0,19.10400096 c -3.924,0 -7.104,-3.18 -7.104,-7.104 0,-3.924001 3.18,-7.104001 7.104,-7.104001 3.924,0 7.104,3.18 7.104,7.104001 0,3.924 -3.18,7.104 -7.104,7.104 z m 0,-13.332001 c -3.432,0 -6.228,2.7960004 -6.228,6.228001 0,3.432 2.796,6.228 6.228,6.228 3.432,0 6.228,-2.796 6.228,-6.228 0,-3.4320006 -2.796,-6.228001 -6.228,-6.228001 z m -2.316,9.768001 V 8.4619544 l 6.132,3.5400006 z"
     id="path11974" />
</svg>
